<svg width="64" height="64" viewBox="0 0 64 64" fill="none" xmlns="http://www.w3.org/2000/svg">
<rect width="64" height="64" rx="10" fill="#F3E6A3"/>
<path d="M30.9026 12.8676H24.5463V30.7059H20.2708V12.8676H14V9.29412H30.9026V12.8676ZM50 20.4853C50 22.5932 49.6389 24.4411 48.9169 26.0293C48.1947 27.6177 47.1592 28.8431 45.81 29.7058C44.4703 30.5686 42.9311 31 41.1924 31C39.4727 31 37.9382 30.5735 36.5891 29.7205C35.2399 28.8677 34.1948 27.6519 33.4536 26.0735C32.7126 24.4853 32.3373 22.6617 32.3278 20.6029V19.5441C32.3278 17.4363 32.6935 15.5833 33.4252 13.9853C34.1663 12.3774 35.2066 11.1471 36.5463 10.2941C37.8955 9.43137 39.4347 9 41.1639 9C42.8932 9 44.4276 9.43137 45.7672 10.2941C47.1164 11.1471 48.1568 12.3774 48.8883 13.9853C49.6294 15.5833 50 17.4314 50 19.5294V20.4853ZM45.6675 19.5147C45.6675 17.2696 45.2779 15.5637 44.4989 14.3971C43.7197 13.2304 42.6081 12.6471 41.1639 12.6471C39.7292 12.6471 38.6223 13.2255 37.8432 14.3823C37.0641 15.5294 36.6699 17.2157 36.6604 19.4412V20.4853C36.6604 22.6716 37.0499 24.3676 37.829 25.5736C38.6081 26.7794 39.7292 27.3824 41.1924 27.3824C42.6271 27.3824 43.7293 26.8039 44.4989 25.6471C45.2684 24.4804 45.658 22.7843 45.6675 20.5588V19.5147Z" fill="#474747"/>
<path d="M14 54.7059V33.2942H20.3798C22.2025 33.2942 23.8307 33.7206 25.2643 34.5735C26.7073 35.4167 27.8322 36.6225 28.6392 38.1911C29.4463 39.75 29.8497 41.5245 29.8497 43.5147V44.5C29.8497 46.4902 29.451 48.2598 28.6535 49.8089C27.8655 51.3578 26.75 52.5588 25.307 53.4118C23.8639 54.2646 22.2358 54.6961 20.4225 54.7059H14ZM18.2722 36.8677V51.1618H20.337C22.0079 51.1618 23.2848 50.5981 24.1677 49.4705C25.0506 48.3431 25.5016 46.7303 25.5206 44.6324V43.5C25.5206 41.3235 25.0839 39.6764 24.2105 38.5588C23.337 37.4314 22.0601 36.8677 20.3798 36.8677H18.2722ZM50 44.4853C50 46.5932 49.6393 48.4411 48.9178 50.0294C48.1963 51.6177 47.1614 52.8431 45.8133 53.7058C44.4748 54.5686 42.9367 55 41.1993 55C39.4811 55 37.9479 54.5735 36.5997 53.7205C35.2516 52.8677 34.2073 51.6519 33.4668 50.0735C32.7263 48.4853 32.3513 46.6617 32.3418 44.6029V43.5442C32.3418 41.4363 32.7073 39.5833 33.4383 37.9853C34.1788 36.3774 35.2184 35.1471 36.5569 34.2942C37.9051 33.4314 39.443 33 41.1709 33C42.8988 33 44.432 33.4314 45.7706 34.2942C47.1187 35.1471 48.1583 36.3774 48.8893 37.9853C49.6299 39.5833 50 41.4314 50 43.5295V44.4853ZM45.6709 43.5147C45.6709 41.2697 45.2817 39.5637 44.5032 38.3971C43.7248 37.2304 42.6139 36.6471 41.1709 36.6471C39.7373 36.6471 38.6314 37.2255 37.8528 38.3824C37.0744 39.5294 36.6804 41.2157 36.6709 43.4411V44.4853C36.6709 46.6716 37.0602 48.3676 37.8386 49.5736C38.6171 50.7794 39.7373 51.3824 41.1993 51.3824C42.6329 51.3824 43.7342 50.8039 44.5032 49.6471C45.2722 48.4804 45.6614 46.7843 45.6709 44.5589V43.5147Z" fill="#474747"/>
</svg>
